# xmcd CD database file
#
# Track frame offsets:
#	150
#	17897
#	35453
#	58127
#	77338
#
# Disc length: 1330 seconds
#
# Revision: 0
# Processed by: cddbd v1.5.2PL0 Copyright (c) Steve Scherf et al.
# Submitted via: CDex 1.51
#
DISCID=34053005
DTITLE=blau: - Ich hebb dien Schlötel verlorn
DYEAR=2005
DGENRE=Blues
TTITLE0=Ick hebb dien Schlötel verlorn
TTITLE1=Mumm mörn man weer
TTITLE2=Wintertied
TTITLE3=Dat is nich fair
TTITLE4=De Lawaimaker
EXTD=YEAR: 2005
EXTT0=
EXTT1=
EXTT2=
EXTT3=
EXTT4=
PLAYORDER=
